<?xml version="1.0" encoding="utf-8"?>
<!-- Generator: Adobe Illustrator 25.0.1, SVG Export Plug-In . SVG Version: 6.00 Build 0)  -->
<svg version="1.1" id="레이어_1" xmlns="http://www.w3.org/2000/svg" xmlns:xlink="http://www.w3.org/1999/xlink" x="0px"
	 y="0px" viewBox="0 0 10 63" style="enable-background:new 0 0 10 63;" xml:space="preserve">
<style type="text/css">
	.st0{fill:#34363B;}
</style>
<path class="st0" d="M1.7,30c-0.9-0.9-1.3-2-1.3-3.4s0.4-2.5,1.3-3.3S3.7,22,5,22s2.4,0.4,3.3,1.3c0.9,0.8,1.3,2,1.3,3.3
	S9.2,29.1,8.3,30s-2,1.3-3.3,1.3S2.6,30.9,1.7,30z M1.7,47.2c-0.9-0.9-1.3-2-1.3-3.4s0.4-2.5,1.3-3.3c0.9-0.8,2-1.3,3.3-1.3
	s2.4,0.4,3.3,1.3c0.9,0.8,1.3,2,1.3,3.3c0,1.3-0.4,2.5-1.3,3.4s-2,1.3-3.3,1.3S2.6,48.1,1.7,47.2z"/>
</svg>
