<?xml version="1.0" encoding="utf-8"?>
<!-- Generator: Adobe Illustrator 25.0.1, SVG Export Plug-In . SVG Version: 6.00 Build 0)  -->
<svg version="1.1" id="레이어_1" xmlns="http://www.w3.org/2000/svg" xmlns:xlink="http://www.w3.org/1999/xlink" x="0px"
	 y="0px" viewBox="0 0 50 63" style="enable-background:new 0 0 50 63;" xml:space="preserve">
<style type="text/css">
	.st0{fill:#34363B;}
</style>
<g>
	<path class="st0" d="M1.6,30c-0.9-0.9-1.3-2-1.3-3.4s0.4-2.5,1.3-3.3s2-1.3,3.3-1.3s2.4,0.4,3.3,1.3c0.9,0.8,1.3,2,1.3,3.3
		S9.1,29.1,8.2,30s-2,1.3-3.3,1.3S2.5,30.9,1.6,30z M1.6,47.2c-0.9-0.9-1.3-2-1.3-3.4s0.4-2.5,1.3-3.3s2-1.3,3.4-1.3
		s2.4,0.4,3.3,1.3c0.9,0.8,1.3,2,1.3,3.3s-0.4,2.5-1.3,3.4s-2,1.3-3.3,1.3S2.5,48.1,1.6,47.2z"/>
	<path class="st0" d="M15.8,18.5h15.3c3.6,0,6.9,0.7,9.7,2.1s5,3.4,6.5,5.9c1.6,2.5,2.3,5.5,2.3,8.8s-0.8,6.3-2.3,8.8
		c-1.6,2.5-3.7,4.5-6.5,5.9s-6,2.1-9.7,2.1H15.8V18.5z M30.7,45.7c3.4,0,6-0.9,8-2.8s3-4.4,3-7.6c0-3.2-1-5.7-3-7.6s-4.7-2.8-8-2.8
		h-7.1v20.8H30.7z"/>
</g>
</svg>
