<?xml version="1.0" encoding="utf-8"?>
<!-- Generator: Adobe Illustrator 25.0.1, SVG Export Plug-In . SVG Version: 6.00 Build 0)  -->
<svg version="1.1" id="레이어_1" xmlns="http://www.w3.org/2000/svg" xmlns:xlink="http://www.w3.org/1999/xlink" x="0px"
	 y="0px" viewBox="0 0 36 63" style="enable-background:new 0 0 36 63;" xml:space="preserve">
<style type="text/css">
	.st0{fill:#34363B;}
</style>
<path class="st0" d="M1.8,18.5h15.3c3.6,0,6.9,0.7,9.7,2.1s5,3.4,6.5,5.9c1.6,2.5,2.3,5.5,2.3,8.8s-0.8,6.3-2.3,8.8
	c-1.6,2.5-3.7,4.5-6.5,5.9s-6,2.1-9.7,2.1H1.8V18.5z M16.7,45.7c3.4,0,6-0.9,8-2.8s3-4.4,3-7.6c0-3.2-1-5.7-3-7.6s-4.7-2.8-8-2.8
	H9.6v20.8H16.7z"/>
</svg>
