<?xml version="1.0" encoding="iso-8859-1"?>
<!-- Generator: Adobe Illustrator 25.0.1, SVG Export Plug-In . SVG Version: 6.00 Build 0)  -->
<svg version="1.1" id="&#xB808;&#xC774;&#xC5B4;_1" xmlns="http://www.w3.org/2000/svg" xmlns:xlink="http://www.w3.org/1999/xlink"
	 x="0px" y="0px" viewBox="0 0 228 228" style="enable-background:new 0 0 228 228;" xml:space="preserve">
<g>
	<path style="fill:#FFFFFF;" d="M81.403,44.237h71.515c20.639,0,37.371,16.731,37.371,37.371v71.515
		c0,20.639-16.732,37.371-37.371,37.371H81.403c-20.639,0-37.371-16.731-37.371-37.371V81.608
		C44.032,60.969,60.764,44.237,81.403,44.237z"/>
</g>
<linearGradient id="SVGID_1_" gradientUnits="userSpaceOnUse" x1="66.9472" y1="154.4559" x2="104.4222" y2="154.4559" gradientTransform="matrix(1 0 0 -1 0 247.0417)">
	<stop  offset="0" style="stop-color:#1289FF"/>
	<stop  offset="1" style="stop-color:#00C1FF"/>
</linearGradient>
<path style="fill:url(#SVGID_1_);" d="M85.685,111.324c-10.333,0-18.738-8.406-18.738-18.738s8.405-18.738,18.738-18.738
	c10.332,0,18.737,8.406,18.737,18.738C104.422,102.919,96.017,111.324,85.685,111.324z M85.685,80.32
	c-6.764,0-12.268,5.502-12.268,12.266c0,6.764,5.504,12.267,12.268,12.267s12.267-5.503,12.267-12.267
	C97.952,85.823,92.449,80.32,85.685,80.32z"/>
<linearGradient id="SVGID_2_" gradientUnits="userSpaceOnUse" x1="91.9632" y1="125.8129" x2="170.3201" y2="125.8129" gradientTransform="matrix(1 0 0 -1 0 247.0417)">
	<stop  offset="0" style="stop-color:#1289FF"/>
	<stop  offset="1" style="stop-color:#00C1FF"/>
</linearGradient>
<path style="fill:url(#SVGID_2_);" d="M164.637,87.856c-6.587-6.609-17.09-7.614-25.54-2.441l-0.121,0.097
	c-0.088,0.047-0.211,0.116-0.361,0.203c-0.191,0.124-0.382,0.25-0.57,0.379l-0.021-0.021l-0.146,0.096
	c-0.844,0.548-1.56,1.115-2.129,1.683l-37.1,36.964c-8.499,8.468-8.957,21.838-1.02,29.805c3.682,3.695,8.757,5.714,14.081,5.714
	c1.271,0,2.557-0.115,3.84-0.35c4.479-0.82,8.59-2.99,11.888-6.275l37.761-37.624l0.045-0.065c0.101-0.228,0.247-0.422,0.435-0.579
	l0.066-0.083c0.014-0.021,0.027-0.042,0.044-0.061l0.033-0.054c0.028-0.066,0.062-0.128,0.114-0.218
	c0.062-0.146,0.146-0.282,0.261-0.419C172.235,106.074,171.579,94.824,164.637,87.856z M123.072,149.328
	c-6.084,6.061-15.53,6.476-21.062,0.927c-5.529-5.551-5.078-14.997,1.005-21.057l12.226-12.182c1.772-1.339,3.825-2.253,6.035-2.656
	c7.764-1.425,15.249,3.745,16.671,11.517c0.76,4.157-0.354,8.389-3.042,11.662L123.072,149.328z M159.878,112.619l-0.264,0.3
	l-15.429,15.373c-0.01-1.161-0.118-2.33-0.332-3.496c-0.975-5.334-3.976-9.974-8.449-13.064c-3.362-2.323-7.249-3.555-11.235-3.612
	l15.312-15.257l0.377-0.337c3.127-2.805,6.989-4.213,10.729-4.213c3.591,0,7.069,1.3,9.67,3.91
	C165.564,97.55,165.399,106.509,159.878,112.619z"/>
</svg>
